<svg width="27" height="20" viewBox="0 0 27 20" fill="none" xmlns="http://www.w3.org/2000/svg">
<path d="M4.98086 18.0442C4.33262 17.396 4.33262 16.345 4.98086 15.6968L19.5039 1.17366C20.1522 0.52543 21.2032 0.525432 21.8514 1.17366V1.17366C22.4996 1.82189 22.4996 2.87288 21.8514 3.52112L7.32831 18.0442C6.68007 18.6924 5.62909 18.6924 4.98086 18.0442V18.0442Z" fill="white"/>
<path d="M5.47378 17.6084C4.82554 16.9602 4.82554 15.9092 5.47378 15.261L17.6773 3.05748C18.3255 2.40925 19.3765 2.40925 20.0247 3.05748V3.05748C20.6729 3.70571 20.6729 4.7567 20.0247 5.40494L7.82123 17.6084C7.173 18.2567 6.12201 18.2566 5.47378 17.6084V17.6084Z" fill="white"/>
<rect x="6.33569" y="0.0490723" width="23.7198" height="3.3198" rx="1.6599" transform="rotate(45 6.33569 0.0490723)" fill="white"/>
</svg>
