<svg width="196" height="35" viewBox="0 0 196 35" fill="none" xmlns="http://www.w3.org/2000/svg">
<path d="M28.36 17.96C28.36 28.08 22.04 34.96 12.4 35H1.49012e-08V34.2C1.32 34.2 2.4 31.88 2.4 29.12V6.8C2.4 4.08 1.32 1.76 1.49012e-08 1.76V0.959999H12.4C22.04 0.959999 28.36 7.88 28.36 17.96ZM9.88 34.2H13.16C20 34.16 24.24 26.92 24.24 17.96C24.24 9 20 1.76 13.16 1.76H9.88C6.4 1.76 6.16 4.08 6.16 6.8V29.12C6.16 31.88 6.4 34.2 9.88 34.2ZM38.9103 32.72C39.3503 33.64 39.9503 34.2 40.5903 34.2V35H32.0703V34.2C33.3903 34.2 34.4703 31.88 34.4703 29.16V20.48C34.4703 15.96 32.7503 15.44 32.0703 15.44V14.6C32.4303 14.64 32.9103 14.68 33.3903 14.68C33.9903 14.68 34.6303 14.64 35.3503 14.52C36.5503 14.28 37.5503 13.88 38.2303 13.56V29.16C38.2303 30.52 38.4703 31.8 38.9103 32.72ZM36.0703 10.48C34.1503 10.48 33.2303 9.2 33.2303 7.64C33.2303 6.04 34.2303 4.8 36.0703 4.8C37.9103 4.8 38.9503 6.04 38.9503 7.64C38.9503 9.2 38.0703 10.48 36.0703 10.48ZM87.1528 32.68C87.5528 33.64 88.1528 34.2 88.8328 34.2V35H80.3128V34.2C81.6328 34.2 82.6728 31.88 82.6728 29.16V19.92C82.6728 16.52 80.7928 15.16 78.3128 15.16C73.5928 15.16 68.5928 20.56 67.4328 21.52C67.7528 21.36 69.2328 20.6 70.3928 20.6C70.5528 20.6 70.7128 20.6 70.8328 20.64V29.16C70.8328 30.52 71.1128 31.76 71.5528 32.68C71.9928 33.64 72.5528 34.2 73.2328 34.2V35H64.7128V34.2C66.0328 34.2 67.1128 31.88 67.1128 29.16V21.72C64.1128 24.6 61.6728 27.48 60.5928 28.4C60.7528 32.08 62.0328 32.88 62.9928 32.88V33.68C62.1528 33.68 61.0728 33.76 59.8728 34C58.6728 34.28 57.6328 34.64 56.8728 35V31.56C56.4328 31.88 52.7128 35 48.7928 35C46.3928 35 43.6328 33.84 43.6328 30.24C43.6328 23.92 54.9128 23.92 56.8728 20.28V19.92C56.8728 16.52 54.9528 14.36 52.2728 14.36C48.2328 14.36 46.0728 17.76 45.5928 20.88H44.7528L45.1528 16C47.9528 13.96 50.9528 13.56 52.3128 13.56C54.4328 13.56 60.5928 14.36 60.5928 20.8V27.44C61.5928 26.56 63.9928 23.68 67.1128 20.68V20.48C67.1128 15.96 65.3928 15.4 64.7128 15.4V14.6C65.0728 14.64 65.5528 14.68 66.0328 14.68C66.6328 14.68 67.2728 14.64 67.9528 14.52C69.1928 14.28 70.1528 13.88 70.8328 13.56V17.4C73.1128 15.4 76.0328 13.56 79.4328 13.56C80.7528 13.56 82.5128 13.84 83.9128 14.92C85.3528 15.96 86.4328 17.76 86.4328 20.8V29.16C86.4328 30.52 86.7128 31.76 87.1528 32.68ZM50.9128 33C54.5928 33 59.4728 28.52 60.2728 27.68C59.9928 27.96 58.7528 28.92 57.1928 28.92H56.8728V21.36C54.5128 24.24 47.9528 24.56 47.9528 30C47.9528 31.8 49.0328 33 50.9128 33ZM103.049 33.4C105.929 33.4 108.449 31.44 109.249 29.96L109.809 30.44C108.849 32.28 105.889 35 101.609 35C95.1691 35 91.2891 30.2 91.2891 24.28C91.2891 18.36 94.8891 13.56 101.289 13.56C103.809 13.56 109.809 14.88 110.289 22.12C110.329 22.36 110.329 22.64 110.329 22.92H95.2091C95.2091 23.2 95.1691 23.48 95.1691 23.76C95.1691 29.24 97.6091 33.4 103.049 33.4ZM101.169 14.36C97.9291 14.36 95.6891 17.52 95.2491 22.12H106.209C106.049 16.68 103.609 14.36 101.169 14.36ZM170.536 0.959999H176.096V1.8C174.816 1.8 173.176 3.96 172.096 7L162.336 35H160.616L154.216 16.08L147.616 35H145.896L136.656 7.64C135.616 4.6 133.856 1.8 132.656 1.8V0.959999H141.176V1.8C140.416 1.8 139.976 2.88 139.976 4.36C139.976 5.24 140.136 6.28 140.496 7.32L148.336 30.52L153.816 14.84L151.376 7.64C150.296 4.6 148.576 1.8 147.376 1.8V0.959999H155.896V1.8H155.856C155.096 1.84 154.656 2.88 154.656 4.32C154.656 5.24 154.856 6.28 155.216 7.32L163.056 30.52L171.256 6.96C171.616 5.96 171.816 5 171.816 4.16C171.816 2.76 171.336 1.8 170.536 1.8V0.959999ZM193.583 13.56V28.08C193.583 32.56 195.303 33.12 195.943 33.12V33.92C195.623 33.88 195.223 33.84 194.743 33.84C194.143 33.84 193.463 33.92 192.703 34.04C191.463 34.24 190.503 34.64 189.823 35V29.2C188.303 32.32 185.343 35 181.263 35C176.743 35 174.783 31.96 174.783 27.76V20.48C174.783 15.96 173.063 15.4 172.383 15.4V14.6C172.743 14.64 173.223 14.68 173.703 14.68C174.303 14.68 174.943 14.64 175.623 14.52C176.863 14.28 177.823 13.88 178.503 13.56V28.6C178.503 32 180.143 33.4 182.623 33.4C186.503 33.4 189.063 30 189.823 27.08V20.48C189.823 15.96 188.103 15.4 187.463 15.4V14.6C187.823 14.64 188.263 14.68 188.783 14.68C189.343 14.68 190.023 14.64 190.703 14.52C191.903 14.28 192.903 13.88 193.583 13.56Z" fill="#222222"/>
</svg>
